<svg width="24" height="24" viewBox="0 0 24 24" fill="none" xmlns="http://www.w3.org/2000/svg">
<path d="M7.5 2.717L2 5.926V21.5L7.5 19.233V2.717ZM9.5 18.91L11.25 19.943V16.75C11.2498 15.5895 11.5487 14.4486 12.118 13.4374C12.6873 12.4261 13.5077 11.5787 14.5 10.977V5.091L9.5 2.138V18.91ZM22 2.5V11.312C21.2186 10.7386 20.3232 10.3396 19.3744 10.1421C18.4255 9.94453 17.4453 9.95303 16.5 10.167V4.767L22 2.5ZM18 23.701L17.797 23.567C17.613 23.446 17.429 23.325 17.25 23.195C16.5757 22.6974 15.9512 22.1358 15.385 21.518C14.39 20.424 13.25 18.751 13.25 16.75C13.25 16.1262 13.3729 15.5086 13.6116 14.9323C13.8503 14.356 14.2002 13.8323 14.6412 13.3912C15.0823 12.9502 15.606 12.6003 16.1823 12.3616C16.7585 12.1229 17.3762 12 18 12C18.6238 12 19.2415 12.1229 19.8177 12.3616C20.394 12.6003 20.9177 12.9502 21.3588 13.3912C21.7998 13.8323 22.1497 14.356 22.3884 14.9323C22.6271 15.5086 22.75 16.1262 22.75 16.75C22.75 18.751 21.61 20.424 20.615 21.518C20.0488 22.1358 19.4243 22.6974 18.75 23.195C18.571 23.325 18.387 23.445 18.203 23.567L18 23.701ZM19.25 16H16.75V18H19.25V16Z" fill="white"/>
</svg>
