<svg width="28" height="28" viewBox="0 0 28 28" fill="none" xmlns="http://www.w3.org/2000/svg">
<path d="M14.006 5.6975C13.1035 4.5725 10.8885 3.576 8.4275 3.576C5.17 3.576 2.545 5.252 1.9005 6.8225V23.1935C1.9005 24.084 2.4865 24.4235 3.119 24.4235C3.635 24.4235 3.9275 24.2715 4.244 24.0255C4.912 23.451 6.26 22.6775 8.428 22.6775C10.584 22.6775 12.0955 23.4275 12.6815 23.955C12.9865 24.201 13.3615 24.424 14.006 24.424C14.6385 24.424 15.002 24.178 15.3185 23.955C15.9395 23.463 17.416 22.678 19.5725 22.678C21.74 22.678 23.0995 23.463 23.756 24.0255C24.0725 24.2715 24.3655 24.424 24.881 24.424C25.514 24.424 26.0995 24.084 26.0995 23.1935V6.8225C25.455 5.252 22.83 3.576 19.5725 3.576C17.1115 3.576 14.8965 4.5725 14.006 5.6975ZM3.787 7.385C4.057 6.658 5.756 5.3455 8.428 5.3455C11.088 5.3455 12.8225 6.67 13.0565 7.385V22.209C11.9435 21.377 10.244 20.908 8.428 20.908C6.5995 20.908 4.9005 21.377 3.787 22.256V7.385ZM24.213 7.385V22.256C23.0995 21.377 21.4005 20.908 19.5725 20.908C17.756 20.908 16.0565 21.377 14.9435 22.209V7.385C15.1775 6.67 16.912 5.3455 19.5725 5.3455C22.244 5.3455 23.944 6.658 24.213 7.385Z" fill="white"/>
</svg>
